<?xml version="1.0" encoding="UTF-8"?>
<svg width="102px" height="77px" viewBox="0 0 102 77" version="1.1" xmlns="http://www.w3.org/2000/svg" xmlns:xlink="http://www.w3.org/1999/xlink">
    <!-- Generator: Sketch 47.1 (45422) - http://www.bohemiancoding.com/sketch -->
    <title>logo</title>
    <desc>Created with Sketch.</desc>
    <defs>
        <polygon id="path-1" points="0 0 102 0 102 76 0 76"></polygon>
        <polygon id="path-3" points="0 0 102 0 102 76 0 76"></polygon>
        <polygon id="path-5" points="0 0 102 0 102 76 0 76"></polygon>
        <polygon id="path-7" points="0 0 102 0 102 76 0 76"></polygon>
        <polygon id="path-9" points="0 0 102 0 102 76 0 76"></polygon>
        <polygon id="path-11" points="0 0 102 0 102 76 0 76"></polygon>
        <polygon id="path-13" points="0 0 102 0 102 76 0 76"></polygon>
        <polygon id="path-15" points="0 0 102 0 102 76 0 76"></polygon>
        <polygon id="path-17" points="0 0 102 0 102 76 0 76"></polygon>
        <polygon id="path-19" points="0 0 102 0 102 76 0 76"></polygon>
        <polygon id="path-21" points="0 0 102 0 102 76 0 76"></polygon>
        <polygon id="path-23" points="0 0 102 0 102 76 0 76"></polygon>
        <polygon id="path-25" points="0 0 102 0 102 76 0 76"></polygon>
        <polygon id="path-27" points="0 0 102 0 102 76 0 76"></polygon>
        <polygon id="path-29" points="0 0 102 0 102 76 0 76"></polygon>
        <polygon id="path-31" points="0 0 102 0 102 76 0 76"></polygon>
    </defs>
    <g id="Page-1" stroke="none" stroke-width="1" fill="none" fill-rule="evenodd">
        <g id="Desktop" transform="translate(-171.000000, -20.000000)">
            <g id="logo" transform="translate(171.000000, 21.000000)">
                <path d="M29.2638037,20.2903226 L41.5302959,20.2903226 C42.186791,17.1290297 43.446337,14.1783258 45.2760736,11.516129 L29.2638037,11.516129 L29.2638037,20.2903226 L29.2638037,20.2903226 Z M41.330976,20.2903226 L28.7116564,20.2903226 L28.7116564,10.9677419 L45.2760736,10.9677419 L45.1801958,11.107586 C43.2955651,13.8639488 42.0053763,16.9290444 41.3454481,20.2182491 L41.330976,20.2903226 L41.330976,20.2903226 Z M29.0117849,30.3423127 L41.5974682,30.3423127 L41.6125226,30.4129443 C44.1140315,42.211266 54.1684557,50.4516129 66.0630791,50.4516129 C75.3780545,50.4516129 83.6625332,45.6351124 88.2232441,37.5677769 C88.2232441,37.5677769 88.2512019,37.5181923 89.4451446,35.3974622 L76.5960124,35.3974622 L76.2773647,35.7438424 C73.4719042,38.8013321 70.0581814,40.3513019 66.1304646,40.3513019 C58.3101577,40.3513019 51.7035071,33.3787558 51.7035071,25.1255667 C51.7035071,16.8399158 58.2356034,10.0992407 66.2645187,10.0992407 C70.5205607,10.0992407 73.9461117,11.7954679 77.04513,15.4376299 L77.3652111,15.8139748 L90,15.8139748 L88.5519277,13.2773035 C83.6697019,4.71519068 75.7067384,0 66.1304646,0 C59.4284707,0 52.8562299,2.80992261 48.0990976,7.70918339 L47.9449712,7.86792599 L47.9449712,0.869338759 L18.3265172,0.869338759 L18.3265172,20.2420018 L0.552147239,20.2420018 L2.45435501,22.0716442 C2.72712307,22.3338371 9.2405807,28.5026821 18.2447943,29.2707109 L18.3265172,29.2774886 L18.3265172,49.5833442 L29.0117849,49.5833442 L29.0117849,30.3423127 L29.0117849,30.3423127 Z M65.8083515,51 C60.0556732,51 54.4360377,48.9729621 49.9848202,45.2927122 C45.5661481,41.6393174 42.466461,36.4999297 41.2519074,30.8148424 L29.0176756,30.8148424 L29.0176756,50.128456 L17.9983548,50.128456 L17.9983548,29.7313205 C8.9939916,28.9249454 2.48919124,22.727101 2.2155948,22.4624868 L0,20.3183598 L17.9983548,20.3183598 L17.9983548,0.872618127 L47.9090635,0.872618127 L47.9090635,7.63514005 C52.6767947,2.78006038 59.2123524,0 65.8755883,0 C75.4979576,0 83.4984185,4.76520395 88.4034844,13.4179807 L90,16.2316997 L77.0025591,16.2316997 L76.6298957,15.7905567 C73.5741989,12.1779821 70.1991273,10.4954083 66.0093464,10.4954083 C58.0968655,10.4954083 51.6593021,17.180945 51.6593021,25.3993821 C51.6593021,33.586667 58.1698245,40.5035175 65.8755883,40.5035175 C69.7420605,40.5035175 73.1038991,38.9670362 75.8681174,35.9370426 L76.2389927,35.5309906 L89.4442238,35.5309906 L89.3694766,35.6641928 C89.3694766,35.6641928 88.0869707,37.9558449 88.075884,37.9758969 C83.4923387,46.1313134 75.1685688,51 65.8083515,51 L65.8083515,51 Z" id="Stroke-1" stroke="#FEFEFE"></path>
                <path d="M66.9575444,41.0812032 C58.5546472,41.0812032 51.4555364,33.6719474 51.4555364,24.8998989 C51.4555364,16.08781 58.470023,8.91737968 67.0923694,8.91737968 C71.6878944,8.91737968 75.3794464,10.7262869 78.6934165,14.5935569 L89,14.5935569 L88.4592657,13.6538465 C83.7723036,5.49338936 76.1356856,1 66.9575444,1 C54.9742542,1 45.0129804,9.7291733 43.2010901,21.1073947 L28.7543746,21.1073947 L28.7543746,9.78055263 L47.6951376,9.78055263 L47.6951376,1.86317297 L20.2044607,1.86317297 L20.2044607,21.106686 L4,21.106686 C4,21.106686 10.9492255,27.7427712 20.2044607,28.0428975 L20.2044607,48.1371816 L28.7543746,48.1371816 L28.7543746,29.0247745 L43.2749569,29.0247745 C45.2510757,40.3587031 55.0861302,49 66.8912077,49 C75.819062,49 83.7561673,44.4176715 88.1279404,36.7412431 L88.457114,36.1604794 L77.8998852,36.1604794 C74.8813827,39.4250166 71.2038153,41.0812032 66.9575444,41.0812032" id="Fill-3" fill="#FCFDFD" fill-rule="nonzero"></path>
                <g id="Group-7">
                    <g id="Fill-5-Clipped">
                        <mask id="mask-2" fill="white">
                            <use xlink:href="#path-1"></use>
                        </mask>
                        <g id="path-1"></g>
                        <path d="M68.8052243,25.6654626 C71.9144602,26.8979657 75.8633077,27.7585469 80.8261062,27.7585469 L81.2892294,27.7585469 L81.2892294,27.7727831 L81.3038468,27.7727831 C81.9509358,27.7727831 82.4728855,28.2941857 82.4728855,28.9405113 L82.4700333,29.1917809 L82.4700333,29.196408 C82.4700333,30.4869235 81.5865695,31.5692344 80.3893656,31.88172 C80.08133,31.9799502 78.8816304,32.4582879 78.3097678,34.1449275 L87.7947024,34.1449275 C88.4720958,31.9130398 88.6514268,29.3412616 88.6514268,29.3412616 L88.6514268,28.9049207 L88.654279,28.9049207 C88.654279,28.2721194 89.1559069,27.7585469 89.7830305,27.7375483 L90.4233457,27.7375483 C90.724964,27.7375483 90.9716778,27.4891259 90.9716778,27.1876734 L90.9716778,27.0406841 C97.3388198,26.5456186 102,22.3815163 102,22.3815163 L90.9716778,22.3815163 L90.9716778,22.352332 C90.9716778,22.0512354 90.724964,21.8024569 90.4233457,21.8024569 L85.40386,21.8024569 C83.2579489,19.6442419 79.5030498,17.0724638 73.7630314,17.0724638 L58.4432432,17.0724638 C58.4432432,17.0724638 58.7220443,17.6789279 59.3837507,18.607843 L71.6541987,18.607843 C72.0891565,18.7811694 72.5098535,18.9605461 72.9127245,19.1463291 L59.7862649,19.1463291 C59.9741525,19.389413 60.1845012,19.6442419 60.4187365,19.9104597 L74.4290163,19.9104597 C74.7505997,20.0859214 75.0597053,20.2674336 75.3556192,20.4507252 L60.9110946,20.4507252 C61.147113,20.6995037 61.4027398,20.9543325 61.677619,21.2148558 L76.5203793,21.2148558 C76.7738671,21.392453 77.0163028,21.5757447 77.2508948,21.7536978 L62.2719426,21.7536978 C62.5671434,22.0085266 62.877675,22.2647791 63.2092411,22.5196079 L78.1860544,22.5196079 C78.3935506,22.70112 78.592134,22.8804967 78.7821606,23.0570262 L63.940826,23.0570262 C64.3076881,23.3161259 64.692733,23.5730902 65.1034474,23.8232922 L79.5486847,23.8232922 C79.7230245,24.0076516 79.887738,24.1856047 80.0403299,24.3610665 L66.0293371,24.3610665 C66.5088603,24.6265725 67.0147665,24.8831808 67.5477682,25.1266207 L80.674584,25.1266207 C80.8200453,25.3159628 80.9548111,25.4949836 81.0749592,25.6654626 L68.8052243,25.6654626 Z" id="Fill-5" fill="#FEFEFE" fill-rule="nonzero" mask="url(#mask-2)"></path>
                    </g>
                </g>
                <path d="M24.4594448,63.5652174 L20.5555556,63.5652174 L20.5555556,75.4347826 L24.4594448,75.4347826 C27.5747977,75.4347826 29.4444444,73.1960779 29.4444444,69.4818207 C29.4444444,65.7111318 27.6291795,63.5652174 24.4594448,63.5652174 M24.4725202,76 L20,76 L20,63 L24.4725202,63 C27.9431646,63 30,65.4168638 30,69.482398 C30,73.4912347 27.8893727,76 24.4725202,76" id="Fill-8" fill="#FEFEFE" fill-rule="nonzero"></path>
                <polygon id="Fill-10" fill="#FEFEFE" fill-rule="nonzero" points="31.6430693 68.8453865 38.2354737 68.8453865 38.2354737 69.5194551 31.6430693 69.5194551 31.6430693 75.3070324 39 75.3070324 39 76 31 76 31 63 39 63 39 63.6933384 31.6430693 63.6933384"></polygon>
                <path d="M49.6274968,66.6760261 L48.9721995,66.6760261 C48.9721995,64.8463489 47.6083403,63.6452467 45.5005258,63.6452467 C43.3920104,63.6452467 41.9934587,64.7214854 41.9934587,66.3170431 C41.9934587,67.6788365 43.0198576,68.4145382 45.6424485,68.9530126 C48.4048593,69.527314 50,70.279688 50,72.4318107 C50,74.6013152 48.2089709,76 45.4469104,76 C43.3040535,76 41,74.7261789 41,71.9837917 L41.6556477,71.9837917 C41.6556477,74.279224 43.5686251,75.3185713 45.4469104,75.3185713 C47.85469,75.3185713 49.3443523,74.2253058 49.3443523,72.4318107 C49.3443523,70.8898168 48.3869877,70.1902968 45.5169957,69.5982592 C43.3383953,69.1679763 41.3364093,68.4514297 41.3364093,66.3170431 C41.3364093,64.3270301 43.0016353,63 45.5005258,63 C48.3505432,63 49.6274968,64.8463489 49.6274968,66.6760261" id="Fill-12" fill="#FEFEFE" fill-rule="nonzero"></path>
                <g id="Fill-14-Clipped">
                    <mask id="mask-4" fill="white">
                        <use xlink:href="#path-3"></use>
                    </mask>
                    <g id="path-3"></g>
                    <polygon id="Fill-14" fill="#FEFEFE" fill-rule="nonzero" mask="url(#mask-4)" points="51.9295218 76 51.2756757 76 51.2756757 63.3333333 51.9295218 63.3333333"></polygon>
                </g>
                <g id="Fill-16-Clipped">
                    <mask id="mask-6" fill="white">
                        <use xlink:href="#path-5"></use>
                    </mask>
                    <g id="path-3"></g>
                    <path d="M65.6108108,75.7801139 L64.9485594,75.7801139 L64.9485594,72.3259508 C64.0558985,74.5924401 62.1087243,76 59.6088492,76 C56.2325692,76 53.4810811,73.0384102 53.4810811,69.3817206 C53.4810811,65.7438368 56.2325692,62.7826087 59.6088492,62.7826087 C62.3596304,62.7826087 64.4852665,64.3731657 65.3609647,67.0052879 L64.6464118,67.0052879 C63.8244286,64.7941317 61.9853913,63.4599879 59.6088492,63.4599879 C56.5894922,63.4599879 54.1415656,66.1282757 54.1415656,69.3817206 C54.1415656,72.6727775 56.5894922,75.3237057 59.6088492,75.3237057 C62.5387987,75.3237057 64.6630212,73.130994 64.931597,69.9495181 L59.7343024,69.9495181 L59.7343024,69.2732241 L65.6108108,69.2732241 L65.6108108,75.7801139 Z" id="Fill-16" fill="#FEFEFE" fill-rule="nonzero" mask="url(#mask-6)"></path>
                </g>
                <g id="Fill-17-Clipped">
                    <mask id="mask-8" fill="white">
                        <use xlink:href="#path-7"></use>
                    </mask>
                    <g id="path-3"></g>
                    <polygon id="Fill-17" fill="#FEFEFE" fill-rule="nonzero" mask="url(#mask-8)" points="77.1891892 76 76.4219136 76 67.9406606 64.3562424 67.9406606 76 67.2648649 76 67.2648649 63.3333333 68.0328638 63.3333333 76.5141167 74.9785355 76.5141167 63.3333333 77.1891892 63.3333333"></polygon>
                </g>
                <g id="Fill-18-Clipped">
                    <mask id="mask-10" fill="white">
                        <use xlink:href="#path-9"></use>
                    </mask>
                    <g id="path-3"></g>
                    <path d="M87.8278355,66.5201068 L87.1459787,66.5201068 C87.1459787,64.659833 85.7242275,63.4386455 83.5300948,63.4386455 C81.3326768,63.4386455 79.8766137,64.5328815 79.8766137,66.1551208 C79.8766137,67.5396866 80.9450259,68.287691 83.6771975,68.83517 C86.5542822,69.4190751 88.2162162,70.1840306 88.2162162,72.372142 C88.2162162,74.5779258 86.3513313,76 83.4738817,76 C81.240692,76 78.8432432,74.7048776 78.8432432,71.916631 L79.5250998,71.916631 C79.5250998,74.2504485 81.5177417,75.3071761 83.4738817,75.3071761 C85.9819314,75.3071761 87.5325347,74.1956286 87.5325347,72.372142 C87.5325347,70.8043622 86.5353011,70.0931446 83.5457905,69.4912067 C81.278289,69.0537285 79.191837,68.3251994 79.191837,66.1551208 C79.191837,64.13183 80.9275052,62.7826087 83.5300948,62.7826087 C86.4995291,62.7826087 87.8278355,64.659833 87.8278355,66.5201068" id="Fill-18" fill="#FEFEFE" fill-rule="nonzero" mask="url(#mask-10)"></path>
                </g>
                <g id="Fill-19-Clipped">
                    <mask id="mask-12" fill="white">
                        <use xlink:href="#path-11"></use>
                    </mask>
                    <g id="path-3"></g>
                    <polygon id="Fill-19" fill="#FEFEFE" fill-rule="nonzero" mask="url(#mask-12)" points="19.8486486 61.1304348 20.6427747 61.1304348 20.6427747 58.7527206 22.6054054 58.7527206 22.6054054 58.0181226 20.6427747 58.0181226 20.6427747 56.3577864 22.6054054 56.3577864 22.6054054 55.6231884 19.8486486 55.6231884"></polygon>
                </g>
                <g id="Fill-20-Clipped">
                    <mask id="mask-14" fill="white">
                        <use xlink:href="#path-13"></use>
                    </mask>
                    <g id="path-3"></g>
                    <polygon id="Fill-20" fill="#FEFEFE" fill-rule="nonzero" mask="url(#mask-14)" points="23.9689047 55.6231884 23.1567568 55.6231884 23.1567568 61.1304348 25.9135135 61.1304348 25.9135135 60.3965255 23.9689047 60.3965255"></polygon>
                </g>
                <g id="Fill-21-Clipped">
                    <mask id="mask-16" fill="white">
                        <use xlink:href="#path-15"></use>
                    </mask>
                    <g id="path-3"></g>
                    <polygon id="Fill-21" fill="#FEFEFE" fill-rule="nonzero" mask="url(#mask-16)" points="26.4648649 61.1304348 29.772973 61.1304348 29.772973 60.3965255 27.3567734 60.3965255 27.3567734 58.7193141 29.772973 58.7193141 29.772973 57.9843717 27.3567734 57.9843717 27.3567734 56.3577864 29.772973 56.3577864 29.772973 55.6231884 26.4648649 55.6231884"></polygon>
                </g>
                <g id="Fill-22-Clipped">
                    <mask id="mask-18" fill="white">
                        <use xlink:href="#path-17"></use>
                    </mask>
                    <g id="path-3"></g>
                    <polygon id="Fill-22" fill="#FEFEFE" fill-rule="nonzero" mask="url(#mask-18)" points="33.0810811 55.6231884 29.772973 55.6231884 29.772973 56.3577862 30.982016 56.3577862 30.982016 61.1304348 31.891688 61.1304348 31.891688 56.3577862 33.0810811 56.3577862"></polygon>
                </g>
                <g id="Fill-23-Clipped">
                    <mask id="mask-20" fill="white">
                        <use xlink:href="#path-19"></use>
                    </mask>
                    <g id="path-3"></g>
                    <path d="M35.9889808,59.8266832 C35.5931344,60.3221615 35.0919286,60.5797101 34.5172702,60.5797101 C33.4417383,60.5797101 32.5297297,59.5620001 32.5297297,58.3634347 C32.5297297,57.149531 33.4174757,56.173913 34.5342207,56.173913 C35.1321448,56.173913 35.6163999,56.4314619 36.0451504,56.9783072 L36.9405405,56.9783072 L36.9405405,59.8266832 L35.9889808,59.8266832 Z M40.5337634,58.2542518 L38.2158207,58.2542518 L38.2158207,55.7380263 L37.3971932,55.7380263 L37.3971932,57.1179035 C36.8274119,56.1547238 35.9370418,55.6231884 34.8702614,55.6231884 C33.2600399,55.6231884 31.9783784,56.9625989 31.9783784,58.6312115 C31.9783784,60.3103963 33.2773689,61.6811594 34.8619434,61.6811594 C35.9287238,61.6811594 36.8627633,61.1244692 37.3971932,60.166758 L37.3971932,61.5677798 L38.2158207,61.5677798 L38.2158207,59.0329619 L40.5337634,59.0329619 L40.5337634,61.5677798 L41.3513514,61.5677798 L41.3513514,55.7380263 L40.5337634,55.7380263 L40.5337634,58.2542518 Z" id="Fill-23" fill="#FEFEFE" fill-rule="nonzero" mask="url(#mask-20)"></path>
                </g>
                <g id="Fill-24-Clipped">
                    <mask id="mask-22" fill="white">
                        <use xlink:href="#path-21"></use>
                    </mask>
                    <g id="path-3"></g>
                    <polygon id="Fill-24" fill="#FEFEFE" fill-rule="nonzero" mask="url(#mask-22)" points="41.9027027 61.1304348 45.2108108 61.1304348 45.2108108 60.3965255 42.7943354 60.3965255 42.7943354 58.7193141 45.2108108 58.7193141 45.2108108 57.9843717 42.7943354 57.9843717 42.7943354 56.3577864 45.2108108 56.3577864 45.2108108 55.6231884 41.9027027 55.6231884"></polygon>
                </g>
                <g id="Fill-25-Clipped">
                    <mask id="mask-24" fill="white">
                        <use xlink:href="#path-23"></use>
                    </mask>
                    <g id="path-3"></g>
                    <path d="M48.0000851,58.1516952 C47.7099571,58.3155798 47.4212747,58.3768116 46.9013569,58.3768116 L46.3135135,58.3768116 L46.3135135,56.173913 L47.2182211,56.173913 C48.0000851,56.173913 48.5189189,56.5982123 48.5189189,57.2447466 C48.5189189,57.6434726 48.3350149,57.9622372 48.0000851,58.1516952 M49.0702703,57.3824908 C49.0702703,56.862861 48.8695059,56.3835209 48.541079,56.0787681 C48.1848378,55.7643734 47.7073531,55.6231884 46.9977232,55.6231884 L45.2108108,55.6231884 L45.2108108,61.1304348 L46.0513122,61.1304348 L46.0513122,58.5711992 L47.9762278,61.1304348 L49.0353237,61.1304348 L47.4131598,59.0749886 C47.8638995,59.0171371 48.0814244,58.9424124 48.3413842,58.7864203 C48.8010391,58.4985406 49.0702703,57.9854538 49.0702703,57.3824908" id="Fill-25" fill="#FEFEFE" fill-rule="nonzero" mask="url(#mask-24)"></path>
                </g>
                <g id="Fill-26-Clipped">
                    <mask id="mask-26" fill="white">
                        <use xlink:href="#path-25"></use>
                    </mask>
                    <g id="path-3"></g>
                    <path d="M64.3951305,59.9640763 C63.9990042,60.3741421 63.4687766,60.5797101 62.8567799,60.5797101 C62.2382414,60.5797101 61.7072868,60.3741421 61.3107972,59.9640763 C60.8946831,59.5522261 60.6486486,58.9544369 60.6486486,58.3716366 C60.6486486,57.8409423 60.851073,57.3116759 61.2130376,56.8923311 C61.6378741,56.4119581 62.1768238,56.173913 62.8487845,56.173913 C63.5287406,56.173913 64.0589682,56.4048203 64.4921632,56.8923311 C64.8552181,57.3116759 65.0594595,57.8409423 65.0594595,58.3984034 C65.0594595,58.9544369 64.8032493,59.5618623 64.3951305,59.9640763 L64.3951305,59.9640763 Z M55.1835518,59.826683 C54.7365408,60.3221613 54.1709271,60.5797101 53.5216159,60.5797101 C52.3063161,60.5797101 51.2756757,59.5619999 51.2756757,58.3630781 C51.2756757,57.1495309 52.2789174,56.173913 53.5411328,56.173913 C54.2152154,56.173913 54.7624382,56.4314619 55.2473571,56.9779505 L56.2378378,56.9779505 L56.2378378,59.826683 L55.1835518,59.826683 Z M68.6322316,59.666565 C68.6322316,60.1383832 68.5706949,60.3391878 68.3462458,60.5727324 C68.1378031,60.7928173 67.8614211,60.9063156 67.5423548,60.9063156 C67.2304023,60.9063156 66.9536644,60.7928173 66.7541146,60.5821905 C66.5296655,60.346827 66.4435849,60.0940025 66.4435849,59.666565 L66.4435849,55.7508739 L65.6034121,55.7508739 L65.6034121,57.9429914 C65.2889699,56.5908341 64.1297304,55.6231884 62.6862837,55.6231884 C61.2680918,55.6231884 60.087866,56.6028387 59.7737794,57.9386261 L59.7737794,55.7508739 L58.9360966,55.7508739 L58.9360966,58.2620237 L56.5578596,58.2620237 L56.5578596,55.7508739 L55.7155527,55.7508739 L55.7155527,57.1001213 C55.1325539,56.1561212 54.2240856,55.636648 53.1413227,55.636648 C51.4887219,55.636648 50.172973,56.9731633 50.172973,58.6378047 C50.172973,60.3137233 51.5065071,61.6811594 53.1320745,61.6811594 C54.215549,61.6811594 55.1656341,61.1384051 55.7155527,60.2009526 L55.7155527,61.5680252 L56.5578596,61.5680252 L56.5578596,59.0386867 L58.9360966,59.0386867 L58.9360966,61.5680252 L59.7737794,61.5680252 L59.7737794,59.3515345 C60.0885776,60.679319 61.2734275,61.6676998 62.6862837,61.6676998 C64.090603,61.6676998 65.2836342,60.6804103 65.6034121,59.3777262 L65.6034121,59.7895214 C65.6034121,60.853204 66.4435849,61.6811594 67.5245694,61.6811594 C68.0620382,61.6811594 68.5543326,61.4807186 68.9438284,61.0980259 C69.3155392,60.7324302 69.4702703,60.346827 69.4702703,59.7895214 L69.4702703,55.7508739 L68.6322316,55.7508739 L68.6322316,59.666565 Z" id="Fill-26" fill="#FEFEFE" fill-rule="nonzero" mask="url(#mask-26)"></path>
                </g>
                <g id="Fill-27-Clipped">
                    <mask id="mask-28" fill="white">
                        <use xlink:href="#path-27"></use>
                    </mask>
                    <g id="path-3"></g>
                    <path d="M86.3756719,59.5861422 C85.9394873,59.8941927 85.3642783,60.0289855 84.5260092,60.0289855 L83.8054054,60.0289855 L83.8054054,56.173913 L84.8992395,56.173913 C85.5730023,56.173913 86.047784,56.3310615 86.4671059,56.7019061 C86.8868024,57.0724216 87.1135135,57.569511 87.1135135,58.1297228 C87.1135135,58.7287286 86.8395865,59.2642834 86.3756719,59.5861422 L86.3756719,59.5861422 Z M81.0486486,59.0742952 C81.5145536,59.0152892 81.740324,58.9405712 82.006608,58.7813593 C82.3550236,58.568029 82.5981045,58.2314492 82.7027027,57.826087 L82.7027027,61.1304348 L81.0486486,59.0742952 Z M79.9459459,58.3768116 L79.9459459,56.173913 L80.8502923,56.173913 C81.6325176,56.173913 82.1513514,56.5979908 82.1513514,57.2447363 C82.1513514,57.6432327 81.9667245,57.9631825 81.6325176,58.1519819 C81.3420283,58.3173613 81.0529843,58.3768116 80.5334278,58.3768116 L79.9459459,58.3768116 Z M76.0864865,58.9275362 L76.9202697,56.7246377 L77.7405405,58.9275362 L76.0864865,58.9275362 Z M84.6571725,61.1304348 C85.7058003,61.1304348 86.44553,60.8745641 86.9420997,60.3390609 C87.3990853,59.8503925 87.6648649,59.1327149 87.6648649,58.4067721 C87.6648649,57.6295176 87.3549063,56.8780912 86.8307691,56.3580849 C86.3235966,55.8549528 85.7058003,55.6231884 84.905634,55.6231884 L82.8783575,55.6231884 L82.8783575,56.9080519 C82.7977753,56.5777962 82.6334304,56.2867992 82.409002,56.0774191 C82.0576923,55.7640379 81.5826819,55.6231884 80.8790021,55.6231884 L79.1090229,55.6231884 L79.1090229,60.4155122 L77.2171102,55.6231884 L76.4618296,55.6231884 L74.5787526,60.3893396 L74.5787526,55.6231884 L73.7432432,55.6231884 L73.7432432,59.8173327 L70.9324114,55.6231884 L70.0216216,55.6231884 L70.0216216,61.1304348 L70.8553637,61.1304348 L70.8553637,56.8698263 L73.7174427,61.1304348 L75.1714552,61.1304348 L75.8062163,59.5032625 L77.8706028,59.5032625 L78.5067775,61.1304348 L79.942765,61.1304348 L79.942765,58.5706948 L81.8509356,61.1304348 L84.6571725,61.1304348 Z" id="Fill-27" fill="#FEFEFE" fill-rule="nonzero" mask="url(#mask-28)"></path>
                </g>
                <g id="Fill-28-Clipped">
                    <mask id="mask-30" fill="white">
                        <use xlink:href="#path-29"></use>
                    </mask>
                    <g id="path-3"></g>
                    <polygon id="Fill-28" fill="#FEFEFE" fill-rule="nonzero" mask="url(#mask-30)" points="70.0216216 54.5217391 68.9189189 54.5217391 68.9189189 55.6231884 70.0216216 55.6231884"></polygon>
                </g>
                <g id="Fill-29-Clipped">
                    <mask id="mask-32" fill="white">
                        <use xlink:href="#path-31"></use>
                    </mask>
                    <g id="path-3"></g>
                    <path d="M88.2162162,63.3333333 L88.3936458,63.3333333 C88.5960034,63.3333333 88.7675676,63.2580509 88.7675676,63.0615078 C88.7675676,62.9220584 88.6698102,62.7826087 88.3936458,62.7826087 C88.3144623,62.7826087 88.2592296,62.7886717 88.2162162,62.7952399 L88.2162162,63.3333333 Z M87.908344,63.884058 L87.6648649,63.884058 L87.6648649,62.8082554 C87.7931653,62.795603 87.9141759,62.7826087 88.0973926,62.7826087 C88.3287221,62.7826087 88.4813218,62.8168043 88.5722009,62.8636529 C88.6640526,62.9111851 88.7121651,62.9836803 88.7121651,63.08661 C88.7121651,63.227839 88.5785187,63.3140125 88.4142557,63.3482084 L88.4142557,63.3567573 C88.5479017,63.3738554 88.639753,63.4600289 88.6693982,63.6183558 C88.7068191,63.7852318 88.7427821,63.850204 88.7675676,63.884058 L88.5114529,63.884058 C88.4750037,63.850204 88.4385549,63.7510359 88.4079379,63.6098069 C88.3714887,63.4719974 88.2738056,63.4210457 88.0789252,63.4210457 L87.908344,63.4210457 L87.908344,63.884058 Z M87.9381646,62.2318841 C87.4848987,62.2318841 87.1135135,62.5998337 87.1135135,63.0553574 C87.1135135,63.519881 87.4848987,63.8840232 87.942551,63.8840232 C88.4009343,63.8881769 88.7675676,63.519881 88.7675676,63.0598573 C88.7675676,62.5998337 88.4009343,62.2318841 87.942551,62.2318841 L87.9381646,62.2318841 Z M88.223333,62.2318841 C88.8333975,62.2318841 89.3189189,62.7202479 89.3189189,63.3306049 C89.3189189,63.9510958 88.8333975,64.4347826 88.2185885,64.4347826 C87.608919,64.4347826 87.1135135,63.9510958 87.1135135,63.3306049 C87.1135135,62.7202479 87.608919,62.2318841 88.2185885,62.2318841 L88.223333,62.2318841 Z" id="Fill-29" fill="#FEFEFE" fill-rule="nonzero" mask="url(#mask-32)"></path>
                </g>
            </g>
        </g>
    </g>
</svg>